<svg width="40" height="40" viewBox="0 0 40 40" fill="none" xmlns="http://www.w3.org/2000/svg">
  <!-- Sophisticated Diamond Design -->
  <g transform="translate(20, 20)">
    <!-- Main diamond structure -->
    <g transform="rotate(45)">
      <!-- Outer faceted diamond -->
      <path d="M-12 -12 L12 -12 L16 0 L12 12 L-12 12 L-16 0 Z" fill="url(#luxeGradient1)" />

      <!-- Top facets -->
      <path d="M-12 -12 L0 -8 L12 -12 L16 0 L0 0 L-16 0 Z" fill="url(#luxeGradient2)" />

      <!-- Bottom facets -->
      <path d="M-16 0 L0 0 L16 0 L12 12 L0 8 L-12 12 Z" fill="url(#luxeGradient3)" />

      <!-- Center brilliant -->
      <path d="M-8 -4 L8 -4 L10 0 L8 4 L-8 4 L-10 0 Z" fill="url(#luxeGradient4)" />
    </g>

    <!-- Subtle sparkle effects -->
    <circle cx="-12" cy="-8" r="1.5" fill="white" opacity="0.6" />
    <circle cx="10" cy="-10" r="1" fill="white" opacity="0.4" />
    <circle cx="-8" cy="12" r="1" fill="white" opacity="0.4" />
    <circle cx="12" cy="8" r="1.5" fill="white" opacity="0.6" />
  </g>

  <!-- Gradients for luxury feel -->
  <defs>
    <linearGradient id="luxeGradient1" x1="0%" y1="0%" x2="100%" y2="100%">
      <stop offset="0%" style="stop-color:#6366f1;stop-opacity:1" />
      <stop offset="50%" style="stop-color:#8b5cf6;stop-opacity:1" />
      <stop offset="100%" style="stop-color:#9333ea;stop-opacity:1" />
    </linearGradient>

    <linearGradient id="luxeGradient2" x1="0%" y1="0%" x2="100%" y2="50%">
      <stop offset="0%" style="stop-color:#a855f7;stop-opacity:0.9" />
      <stop offset="100%" style="stop-color:#6366f1;stop-opacity:0.9" />
    </linearGradient>

    <linearGradient id="luxeGradient3" x1="0%" y1="50%" x2="100%" y2="100%">
      <stop offset="0%" style="stop-color:#4f46e5;stop-opacity:0.8" />
      <stop offset="100%" style="stop-color:#7c3aed;stop-opacity:0.8" />
    </linearGradient>

    <radialGradient id="luxeGradient4" cx="50%" cy="50%" r="50%">
      <stop offset="0%" style="stop-color:#fbbf24;stop-opacity:1" />
      <stop offset="100%" style="stop-color:#f59e0b;stop-opacity:1" />
    </radialGradient>
  </defs>
</svg>
